<svg width="20" height="20" viewBox="0 0 20 20" fill="none" xmlns="http://www.w3.org/2000/svg">
<path d="M18.996 9.712L19.995 9.68C19.9902 9.52711 19.9503 9.37737 19.8785 9.2423C19.8067 9.10723 19.7049 8.99044 19.5809 8.9009C19.4568 8.81136 19.3139 8.75146 19.1631 8.72582C19.0123 8.70018 18.8576 8.70948 18.711 8.753L18.996 9.712ZM10.289 1.005L11.247 1.289C11.2905 1.14236 11.2998 0.987682 11.2742 0.83688C11.2485 0.686078 11.1886 0.543168 11.0991 0.419147C11.0096 0.295125 10.8928 0.193298 10.7577 0.121499C10.6226 0.0497011 10.4729 0.00984611 10.32 0.00500083L10.289 1.005ZM18.711 8.753C18.1556 8.9175 17.5793 9.00069 17 9V11C17.7719 11.0006 18.5399 10.8894 19.28 10.67L18.711 8.753ZM17 9C15.4087 9 13.8826 8.36786 12.7574 7.24264C11.6321 6.11742 11 4.5913 11 3H9C9 5.12173 9.84285 7.15656 11.3431 8.65686C12.8434 10.1571 14.8783 11 17 11V9ZM11 3C11 2.404 11.087 1.829 11.247 1.289L9.33 0.720001C9.11057 1.4601 8.99942 2.22806 9 3H11ZM10 2C10.0867 2 10.1723 2.00133 10.257 2.004L10.32 0.00500083C10.2134 0.00162729 10.1067 -3.97065e-05 10 7.17806e-07V2ZM2 10C2 7.87827 2.84285 5.84344 4.34315 4.34315C5.84344 2.84286 7.87827 2 10 2V7.17806e-07C4.477 7.17806e-07 0 4.477 0 10H2ZM10 18C7.87827 18 5.84344 17.1571 4.34315 15.6569C2.84285 14.1566 2 12.1217 2 10H0C0 15.523 4.477 20 10 20V18ZM18 10C18 12.1217 17.1571 14.1566 15.6569 15.6569C14.1566 17.1571 12.1217 18 10 18V20C15.523 20 20 15.523 20 10H18ZM17.996 9.743C17.9987 9.82767 18 9.91333 18 10H20C20 9.89333 19.9983 9.78667 19.995 9.68L17.996 9.743Z" fill="black"/>
</svg>
