<svg width="24" height="24" viewBox="0 0 24 24" fill="none" xmlns="http://www.w3.org/2000/svg">
<path d="M11 0H13.004V2.004H11V0ZM4.224 2.807L5.641 4.224L4.224 5.641L2.807 4.224L4.224 2.807ZM19.78 2.807L21.197 4.224L19.78 5.641L18.363 4.224L19.78 2.807ZM12.001 6.004C10.4097 6.004 8.88358 6.63614 7.75836 7.76136C6.63314 8.88658 6.001 10.4127 6.001 12.004C6.001 13.5953 6.63314 15.1214 7.75836 16.2466C8.88358 17.3719 10.4097 18.004 12.001 18.004C13.5923 18.004 15.1184 17.3719 16.2436 16.2466C17.3689 15.1214 18.001 13.5953 18.001 12.004C18.001 10.4127 17.3689 8.88658 16.2436 7.76136C15.1184 6.63614 13.5923 6.004 12.001 6.004ZM4.001 12.004C4.001 9.88227 4.84385 7.84744 6.34415 6.34715C7.84444 4.84686 9.87927 4.004 12.001 4.004C14.1227 4.004 16.1576 4.84686 17.6579 6.34715C19.1581 7.84744 20.001 9.88227 20.001 12.004C20.001 14.1257 19.1581 16.1606 17.6579 17.6609C16.1576 19.1611 14.1227 20.004 12.001 20.004C9.87927 20.004 7.84444 19.1611 6.34415 17.6609C4.84385 16.1606 4.001 14.1257 4.001 12.004ZM0 11H2.004V13.004H0V11ZM22 11H24.004V13.004H22V11ZM4.224 18.364L5.641 19.781L4.224 21.199L2.807 19.781L4.224 18.364ZM19.78 18.364L21.197 19.781L19.78 21.198L18.363 19.781L19.78 18.364ZM11.001 22.001H13.005V24.004H11.001V22.001Z" fill="black"/>
</svg>
